<?xml version="1.0" encoding="UTF-8" standalone="no"?>
<svg
   xmlns:dc="http://purl.org/dc/elements/1.1/"
   xmlns:cc="http://creativecommons.org/ns#"
   xmlns:rdf="http://www.w3.org/1999/02/22-rdf-syntax-ns#"
   xmlns:svg="http://www.w3.org/2000/svg"
   xmlns="http://www.w3.org/2000/svg"
   xmlns:sodipodi="http://sodipodi.sourceforge.net/DTD/sodipodi-0.dtd"
   xmlns:inkscape="http://www.inkscape.org/namespaces/inkscape"
   version="1.0"
   width="442"
   height="310"
   id="svg2"
   inkscape:version="0.48.1 r9760"
   sodipodi:docname="SetDifferenceA.svg">
  <metadata
     id="metadata20">
    <rdf:RDF>
      <cc:Work
         rdf:about="">
        <dc:format>image/svg+xml</dc:format>
        <dc:type
           rdf:resource="http://purl.org/dc/dcmitype/StillImage" />
        <dc:title />
      </cc:Work>
    </rdf:RDF>
  </metadata>
  <defs
     id="defs18">
    <inkscape:perspective
       sodipodi:type="inkscape:persp3d"
       inkscape:vp_x="0 : 286 : 1"
       inkscape:vp_y="0 : 1000 : 0"
       inkscape:vp_z="620 : 286 : 1"
       inkscape:persp3d-origin="310 : 190.66667 : 1"
       id="perspective22" />
    <inkscape:perspective
       id="perspective3232"
       inkscape:persp3d-origin="0.5 : 0.33333333 : 1"
       inkscape:vp_z="1 : 0.5 : 1"
       inkscape:vp_y="0 : 1000 : 0"
       inkscape:vp_x="0 : 0.5 : 1"
       sodipodi:type="inkscape:persp3d" />
    <inkscape:perspective
       id="perspective3222"
       inkscape:persp3d-origin="0.5 : 0.33333333 : 1"
       inkscape:vp_z="1 : 0.5 : 1"
       inkscape:vp_y="0 : 1000 : 0"
       inkscape:vp_x="0 : 0.5 : 1"
       sodipodi:type="inkscape:persp3d" />
    <inkscape:perspective
       id="perspective3222-2"
       inkscape:persp3d-origin="0.5 : 0.33333333 : 1"
       inkscape:vp_z="1 : 0.5 : 1"
       inkscape:vp_y="0 : 1000 : 0"
       inkscape:vp_x="0 : 0.5 : 1"
       sodipodi:type="inkscape:persp3d" />
    <inkscape:perspective
       id="perspective3222-5"
       inkscape:persp3d-origin="0.5 : 0.33333333 : 1"
       inkscape:vp_z="1 : 0.5 : 1"
       inkscape:vp_y="0 : 1000 : 0"
       inkscape:vp_x="0 : 0.5 : 1"
       sodipodi:type="inkscape:persp3d" />
    <inkscape:perspective
       id="perspective3276"
       inkscape:persp3d-origin="0.5 : 0.33333333 : 1"
       inkscape:vp_z="1 : 0.5 : 1"
       inkscape:vp_y="0 : 1000 : 0"
       inkscape:vp_x="0 : 0.5 : 1"
       sodipodi:type="inkscape:persp3d" />
    <inkscape:perspective
       id="perspective3276-5"
       inkscape:persp3d-origin="0.5 : 0.33333333 : 1"
       inkscape:vp_z="1 : 0.5 : 1"
       inkscape:vp_y="0 : 1000 : 0"
       inkscape:vp_x="0 : 0.5 : 1"
       sodipodi:type="inkscape:persp3d" />
    <inkscape:perspective
       id="perspective3276-8"
       inkscape:persp3d-origin="0.5 : 0.33333333 : 1"
       inkscape:vp_z="1 : 0.5 : 1"
       inkscape:vp_y="0 : 1000 : 0"
       inkscape:vp_x="0 : 0.5 : 1"
       sodipodi:type="inkscape:persp3d" />
    <inkscape:perspective
       id="perspective4113"
       inkscape:persp3d-origin="0.5 : 0.33333333 : 1"
       inkscape:vp_z="1 : 0.5 : 1"
       inkscape:vp_y="0 : 1000 : 0"
       inkscape:vp_x="0 : 0.5 : 1"
       sodipodi:type="inkscape:persp3d" />
    <inkscape:perspective
       id="perspective4216"
       inkscape:persp3d-origin="0.5 : 0.33333333 : 1"
       inkscape:vp_z="1 : 0.5 : 1"
       inkscape:vp_y="0 : 1000 : 0"
       inkscape:vp_x="0 : 0.5 : 1"
       sodipodi:type="inkscape:persp3d" />
    <inkscape:perspective
       id="perspective4241"
       inkscape:persp3d-origin="0.5 : 0.33333333 : 1"
       inkscape:vp_z="1 : 0.5 : 1"
       inkscape:vp_y="0 : 1000 : 0"
       inkscape:vp_x="0 : 0.5 : 1"
       sodipodi:type="inkscape:persp3d" />
    <inkscape:perspective
       id="perspective4266"
       inkscape:persp3d-origin="0.5 : 0.33333333 : 1"
       inkscape:vp_z="1 : 0.5 : 1"
       inkscape:vp_y="0 : 1000 : 0"
       inkscape:vp_x="0 : 0.5 : 1"
       sodipodi:type="inkscape:persp3d" />
    <inkscape:perspective
       id="perspective4266-5"
       inkscape:persp3d-origin="0.5 : 0.33333333 : 1"
       inkscape:vp_z="1 : 0.5 : 1"
       inkscape:vp_y="0 : 1000 : 0"
       inkscape:vp_x="0 : 0.5 : 1"
       sodipodi:type="inkscape:persp3d" />
    <inkscape:perspective
       id="perspective4266-8"
       inkscape:persp3d-origin="0.5 : 0.33333333 : 1"
       inkscape:vp_z="1 : 0.5 : 1"
       inkscape:vp_y="0 : 1000 : 0"
       inkscape:vp_x="0 : 0.5 : 1"
       sodipodi:type="inkscape:persp3d" />
    <inkscape:perspective
       id="perspective4266-3"
       inkscape:persp3d-origin="0.5 : 0.33333333 : 1"
       inkscape:vp_z="1 : 0.5 : 1"
       inkscape:vp_y="0 : 1000 : 0"
       inkscape:vp_x="0 : 0.5 : 1"
       sodipodi:type="inkscape:persp3d" />
    <inkscape:perspective
       id="perspective4266-6"
       inkscape:persp3d-origin="0.5 : 0.33333333 : 1"
       inkscape:vp_z="1 : 0.5 : 1"
       inkscape:vp_y="0 : 1000 : 0"
       inkscape:vp_x="0 : 0.5 : 1"
       sodipodi:type="inkscape:persp3d" />
    <inkscape:perspective
       id="perspective4266-87"
       inkscape:persp3d-origin="0.5 : 0.33333333 : 1"
       inkscape:vp_z="1 : 0.5 : 1"
       inkscape:vp_y="0 : 1000 : 0"
       inkscape:vp_x="0 : 0.5 : 1"
       sodipodi:type="inkscape:persp3d" />
    <inkscape:perspective
       id="perspective4449"
       inkscape:persp3d-origin="0.5 : 0.33333333 : 1"
       inkscape:vp_z="1 : 0.5 : 1"
       inkscape:vp_y="0 : 1000 : 0"
       inkscape:vp_x="0 : 0.5 : 1"
       sodipodi:type="inkscape:persp3d" />
    <inkscape:perspective
       id="perspective4520"
       inkscape:persp3d-origin="0.5 : 0.33333333 : 1"
       inkscape:vp_z="1 : 0.5 : 1"
       inkscape:vp_y="0 : 1000 : 0"
       inkscape:vp_x="0 : 0.5 : 1"
       sodipodi:type="inkscape:persp3d" />
    <inkscape:perspective
       id="perspective2937"
       inkscape:persp3d-origin="0.5 : 0.33333333 : 1"
       inkscape:vp_z="1 : 0.5 : 1"
       inkscape:vp_y="0 : 1000 : 0"
       inkscape:vp_x="0 : 0.5 : 1"
       sodipodi:type="inkscape:persp3d" />
    <inkscape:perspective
       id="perspective3731"
       inkscape:persp3d-origin="0.5 : 0.33333333 : 1"
       inkscape:vp_z="1 : 0.5 : 1"
       inkscape:vp_y="0 : 1000 : 0"
       inkscape:vp_x="0 : 0.5 : 1"
       sodipodi:type="inkscape:persp3d" />
    <inkscape:perspective
       id="perspective3232-4"
       inkscape:persp3d-origin="0.5 : 0.33333333 : 1"
       inkscape:vp_z="1 : 0.5 : 1"
       inkscape:vp_y="0 : 1000 : 0"
       inkscape:vp_x="0 : 0.5 : 1"
       sodipodi:type="inkscape:persp3d" />
    <inkscape:perspective
       id="perspective4147"
       inkscape:persp3d-origin="0.5 : 0.33333333 : 1"
       inkscape:vp_z="1 : 0.5 : 1"
       inkscape:vp_y="0 : 1000 : 0"
       inkscape:vp_x="0 : 0.5 : 1"
       sodipodi:type="inkscape:persp3d" />
    <inkscape:perspective
       id="perspective3039"
       inkscape:persp3d-origin="0.5 : 0.33333333 : 1"
       inkscape:vp_z="1 : 0.5 : 1"
       inkscape:vp_y="0 : 1000 : 0"
       inkscape:vp_x="0 : 0.5 : 1"
       sodipodi:type="inkscape:persp3d" />
  </defs>
  <sodipodi:namedview
     pagecolor="#ffffff"
     bordercolor="#666666"
     borderopacity="1"
     objecttolerance="10"
     gridtolerance="10"
     guidetolerance="10"
     inkscape:pageopacity="0"
     inkscape:pageshadow="2"
     inkscape:window-width="1600"
     inkscape:window-height="1098"
     id="namedview16"
     showgrid="false"
     inkscape:zoom="4.84"
     inkscape:cx="305.87963"
     inkscape:cy="100.13609"
     inkscape:window-x="0"
     inkscape:window-y="36"
     inkscape:window-maximized="1"
     inkscape:current-layer="svg2" />
  <path
     inkscape:connector-curvature="0"
     style="color:#000000;fill:#4682b4;fill-opacity:1;stroke:none;stroke-width:3.75;marker:none;visibility:visible;display:inline;overflow:visible;enable-background:accumulate"
     d="m 258.72957,166.92706 c 0.2128,24.74599 -6.13902,39.37828 -38.94468,65.36855 63.38122,46.50848 200.66651,26.26034 208.26804,-65.77721 -0.91479,-51.03526 -43.98209,-84.26986 -114.84283,-93.92617 -37.80405,0.0197 -84.71996,13.14397 -90.66388,27.36595 14.54364,7.79001 31.00149,29.00563 36.18335,66.96888 z"
     id="path4386-2"
     sodipodi:nodetypes="cccccc" />
  <path
     style="color:#000000;fill:#4682b4;fill-opacity:1;stroke:none;stroke-width:3.75;marker:none;visibility:visible;display:inline;overflow:visible;enable-background:accumulate"
     d="m 182.65351,166.14462 c -0.2128,24.74599 6.13902,39.37828 38.94468,65.36855 -56.14982,50.02088 -200.666514,26.26034 -208.268045,-65.77721 0.91479,-51.03526 43.982092,-84.269866 114.842825,-93.92617 37.80406,0.01971 84.71997,13.143969 90.66389,27.365951 -14.54364,7.790009 -29.14199,33.551079 -36.18335,66.968879 z"
     id="path4386"
     sodipodi:nodetypes="cccccc" />
  <path
     style="color:#000000;fill:none;fill-opacity:1;stroke:#000000;stroke-width:3.75000000000000000;stroke-linecap:round;stroke-linejoin:round;stroke-miterlimit:4;stroke-opacity:1;stroke-dasharray:none;stroke-dashoffset:0.59999999999999998;marker:none;visibility:visible;display:inline;overflow:visible;enable-background:accumulate"
     d="m 428.66986,167.29327 c -0.9148,51.03525 -56.61722,91.54462 -124.41492,90.48022 -67.79765,-1.06443 -122.01693,-43.29956 -121.10214,-94.33483 0.91479,-51.03526 56.61722,-91.544642 124.4149,-90.480222 67.79768,1.06442 122.01695,43.299552 121.10216,94.334832 z"
     id="path4386-1" />
  <path
     style="color:#000000;fill:none;stroke:#000000;stroke-width:3.75;stroke-linecap:round;stroke-linejoin:round;stroke-miterlimit:4;stroke-opacity:1;stroke-dasharray:none;stroke-dashoffset:0.6;marker:none;visibility:visible;display:inline;overflow:visible;enable-background:accumulate"
     d="m 258.8472,167.29327 c -0.9148,51.03525 -56.61722,91.54462 -124.41492,90.48022 C 66.634638,256.70906 12.415352,214.47393 13.330142,163.43866 14.244932,112.4034 69.947368,71.894018 137.74504,72.958438 c 67.79768,1.06442 122.01695,43.299552 121.10216,94.334832 z"
     id="path4386-15" />
  <g
     style="font-size:42.73818588px;font-style:italic;font-variant:normal;font-weight:normal;font-stretch:normal;fill:#000000;fill-opacity:1;stroke:none;font-family:Gentium;-inkscape-font-specification:Andale Mono Italic"
     id="text4135"
     transform="translate(3.16836e-06, 10.366)">
    <path
       d="m 414.00741,41.717971 c -0.41738,2.5e-5 -0.81387,0.007 -1.18949,0.02087 -0.37564,2.5e-5 -0.7304,0.007 -1.06428,0.02087 l -1.35644,9.995894 0.66779,0 c 0.97384,1.5e-5 1.91291,-0.0765 2.81721,-0.22955 0.91819,-0.153019 1.7251,-0.431262 2.42072,-0.834731 0.70951,-0.403436 1.27295,-0.959922 1.69033,-1.66946 0.41735,-0.709502 0.62603,-1.620748 0.62605,-2.733741 -2e-5,-0.848621 -0.15305,-1.565097 -0.45911,-2.149431 -0.29217,-0.584288 -0.6678,-1.057301 -1.12688,-1.419041 -0.45912,-0.361692 -0.95996,-0.619067 -1.50252,-0.772125 -0.54258,-0.153009 -1.05038,-0.229526 -1.52338,-0.229551 m -0.68865,11.623618 c -0.61215,1.3e-5 -1.17559,0.03479 -1.69033,0.104341 -0.51476,0.05566 -1.00864,0.118267 -1.48165,0.187814 l -1.52338,11.081044 c -0.0417,0.111299 0.0348,0.243464 0.22955,0.396496 0.26433,0.125212 0.55648,0.236509 0.87647,0.333892 0.31997,0.08347 0.64691,0.153036 0.98081,0.208683 0.34779,0.04174 0.68864,0.07652 1.02254,0.104341 0.33388,0.01391 0.64691,0.02087 0.93907,0.02087 0.91819,1e-6 1.74597,-0.187813 2.48333,-0.563443 0.75124,-0.389539 1.3912,-0.897333 1.91987,-1.523383 0.52865,-0.626044 0.93906,-1.34252 1.23123,-2.14943 0.29214,-0.8069 0.43822,-1.634673 0.43823,-2.483322 -1e-5,-0.6956 -0.10435,-1.384252 -0.31302,-2.065958 -0.19478,-0.681685 -0.50781,-1.29382 -0.93907,-1.836406 -0.43129,-0.542563 -0.99473,-0.980795 -1.69033,-1.3147 -0.68171,-0.333879 -1.50948,-0.500825 -2.48332,-0.500838 m 8.68119,4.987513 c -2e-5,1.363399 -0.26435,2.608537 -0.79299,3.735417 -0.52868,1.12689 -1.24516,2.093784 -2.14943,2.900688 -0.90431,0.806907 -1.95468,1.43991 -3.15111,1.899011 -1.19646,0.445189 -2.45551,0.667783 -3.77715,0.667784 -0.37564,-10e-7 -0.8417,-0.02087 -1.39817,-0.06261 -0.54259,-0.02783 -1.11994,-0.06261 -1.73207,-0.104341 -0.61214,-0.04174 -1.22428,-0.09739 -1.83641,-0.166946 -0.59822,-0.05565 -1.1408,-0.104342 -1.62772,-0.146078 -0.48693,-0.04174 -0.88343,-0.08347 -1.18949,-0.125209 -0.30607,-0.02782 -0.4591,-0.04174 -0.4591,-0.04174 l -1.37731,0 0.12521,-0.897335 c 0.87647,-0.194769 1.57903,-0.403452 2.1077,-0.626048 0.52866,-0.236505 0.8069,-0.452143 0.83473,-0.646915 l 3.10937,-22.72553 c -0.62606,0.0835 -1.19646,0.173927 -1.7112,0.271287 -0.51476,0.09741 -1.02255,0.201751 -1.52338,0.313024 l 0,-1.293832 c 0.63995,-0.180832 1.29382,-0.347778 1.96161,-0.500838 0.66778,-0.166919 1.37035,-0.306041 2.1077,-0.417365 0.73733,-0.125183 1.52337,-0.222568 2.35811,-0.292155 0.83472,-0.06953 1.73205,-0.104315 2.692,-0.104342 1.12688,2.7e-5 2.13551,0.118281 3.0259,0.354761 0.90428,0.236533 1.66944,0.584337 2.29551,1.043412 0.63994,0.445215 1.12687,0.994745 1.46078,1.648593 0.34778,0.639983 0.52168,1.363415 0.5217,2.170298 -2e-5,0.723454 -0.11827,1.426018 -0.35476,2.107694 -0.22261,0.681715 -0.54259,1.314718 -0.95994,1.899011 -0.40347,0.570416 -0.89039,1.085166 -1.46077,1.544251 -0.55651,0.445205 -1.16864,0.799965 -1.83641,1.064281 0.7095,0.166961 1.34946,0.445204 1.91988,0.83473 0.58429,0.389555 1.08513,0.869524 1.50251,1.43991 0.41735,0.556499 0.73733,1.196458 0.95994,1.919879 0.23649,0.723443 0.35474,1.502524 0.35476,2.337245"
       id="path3026" />
  </g>
  <g
     style="font-size:42.73818588px;font-style:italic;font-variant:normal;font-weight:normal;font-stretch:normal;fill:#000000;fill-opacity:1;stroke:none;font-family:Gentium;-inkscape-font-specification:Andale Mono Italic"
     id="text4135-0"
     transform="translate(3.16836e-06, 10.366)">
    <path
       d="m 29.286373,56.367504 6.865656,0 -1.961616,-11.35233 -4.90404,11.35233 m 13.710444,11.164517 -8.034279,0 0.08347,-0.897335 c 0.987749,-0.06956 1.697269,-0.208682 2.128562,-0.417365 0.431261,-0.222594 0.605163,-0.556485 0.521707,-1.001677 l -1.210359,-6.949129 -8.01341,0 -2.98416,6.949129 c -0.194775,0.431279 -0.09043,0.744303 0.313024,0.939072 0.417359,0.180859 1.16166,0.340849 2.232903,0.47997 l -0.12521,0.897335 -7.909068,0 0.125209,-0.897335 c 0.876467,-0.166945 1.579031,-0.340847 2.107694,-0.521707 0.52866,-0.194769 0.88342,-0.49388 1.064281,-0.897335 l 10.16284,-23.330709 c 0.180845,-0.16692 0.396484,-0.333866 0.646916,-0.500838 0.250405,-0.180832 0.50778,-0.347777 0.772125,-0.500838 0.264317,-0.166919 0.514736,-0.319953 0.751258,-0.459101 0.250403,-0.153007 0.466042,-0.278216 0.646915,-0.375629 l 4.507544,25.167115 c 0.0278,0.194773 0.0765,0.368675 0.146077,0.521707 0.08345,0.139123 0.208662,0.271288 0.375629,0.396496 0.166925,0.111299 0.38952,0.208684 0.667784,0.292156 0.292134,0.08347 0.660806,0.153035 1.106018,0.208683 l -0.08347,0.897335"
       id="path3029" />
  </g>
</svg>
